<mxfile host="app.diagrams.net" modified="2021-12-21T16:02:32.611Z" agent="5.0 (Windows NT 10.0; Win64; x64) AppleWebKit/537.36 (KHTML, like Gecko) Chrome/96.0.4664.110 Safari/537.36" etag="5NO1x7fsm7k95jY-r6t9" version="16.0.0" type="github">
  <diagram name="Page-1" id="16e2658f-23c8-b752-8be9-c03fbebb8bbe">
    <mxGraphModel dx="1422" dy="794" grid="1" gridSize="10" guides="1" tooltips="1" connect="1" arrows="1" fold="1" page="1" pageScale="1" pageWidth="1100" pageHeight="850" background="none" math="0" shadow="0">
      <root>
        <mxCell id="0" />
        <mxCell id="1" parent="0" />
        <mxCell id="6d250d948d6a1778-8" style="edgeStyle=orthogonalEdgeStyle;rounded=0;html=1;entryX=1;entryY=0.5;entryPerimeter=0;labelBackgroundColor=none;startArrow=none;startFill=0;startSize=5;endArrow=none;endFill=0;endSize=5;jettySize=auto;orthogonalLoop=1;strokeWidth=1;fontFamily=Verdana;fontSize=12" parent="1" source="uaZM5fU-F3_P_CyxsgHP-8" target="6d250d948d6a1778-3" edge="1">
          <mxGeometry relative="1" as="geometry">
            <Array as="points">
              <mxPoint x="230" y="120" />
              <mxPoint x="640" y="120" />
            </Array>
            <mxPoint x="230" y="270" as="sourcePoint" />
          </mxGeometry>
        </mxCell>
        <mxCell id="6d250d948d6a1778-9" style="edgeStyle=orthogonalEdgeStyle;rounded=0;html=1;exitX=0;exitY=0.5;exitPerimeter=0;entryX=1;entryY=0.5;entryPerimeter=0;labelBackgroundColor=none;startArrow=none;startFill=0;startSize=5;endArrow=none;endFill=0;endSize=5;jettySize=auto;orthogonalLoop=1;strokeWidth=1;fontFamily=Verdana;fontSize=12" parent="1" source="6d250d948d6a1778-3" edge="1">
          <mxGeometry relative="1" as="geometry">
            <mxPoint x="640" y="370" as="targetPoint" />
          </mxGeometry>
        </mxCell>
        <mxCell id="6d250d948d6a1778-3" value="" style="verticalLabelPosition=bottom;shadow=0;dashed=0;align=center;html=1;verticalAlign=top;strokeWidth=1;shape=mxgraph.electrical.resistors.resistor_1;rounded=1;comic=0;labelBackgroundColor=none;fontFamily=Verdana;fontSize=12;rotation=-90;" parent="1" vertex="1">
          <mxGeometry x="590" y="200" width="100" height="20" as="geometry" />
        </mxCell>
        <mxCell id="6d250d948d6a1778-19" value="R3" style="text;html=1;resizable=0;points=[];autosize=1;align=left;verticalAlign=top;spacingTop=-4;fontSize=16;fontFamily=Verdana" parent="1" vertex="1">
          <mxGeometry x="650" y="200" width="40" height="20" as="geometry" />
        </mxCell>
        <mxCell id="6d250d948d6a1778-21" value="I1" style="endArrow=classic;html=1;labelBackgroundColor=none;strokeWidth=1;fontFamily=Verdana;fontSize=16" parent="1" edge="1">
          <mxGeometry x="-0.1429" y="20" width="50" height="50" relative="1" as="geometry">
            <mxPoint x="260" y="150" as="sourcePoint" />
            <mxPoint x="330" y="150" as="targetPoint" />
            <mxPoint as="offset" />
          </mxGeometry>
        </mxCell>
        <mxCell id="uaZM5fU-F3_P_CyxsgHP-5" value="R1" style="text;html=1;resizable=0;points=[];autosize=1;align=left;verticalAlign=top;spacingTop=-4;fontSize=16;fontFamily=Verdana" vertex="1" parent="1">
          <mxGeometry x="250" y="180" width="40" height="20" as="geometry" />
        </mxCell>
        <mxCell id="uaZM5fU-F3_P_CyxsgHP-18" style="edgeStyle=orthogonalEdgeStyle;rounded=0;orthogonalLoop=1;jettySize=auto;html=1;exitX=0;exitY=0.5;exitDx=0;exitDy=0;exitPerimeter=0;fontFamily=Verdana;fontSize=16;fontColor=default;" edge="1" parent="1" source="uaZM5fU-F3_P_CyxsgHP-6">
          <mxGeometry relative="1" as="geometry">
            <mxPoint x="230" y="340" as="targetPoint" />
          </mxGeometry>
        </mxCell>
        <mxCell id="uaZM5fU-F3_P_CyxsgHP-6" value="" style="verticalLabelPosition=bottom;shadow=0;dashed=0;align=center;html=1;verticalAlign=top;strokeWidth=1;shape=mxgraph.electrical.resistors.resistor_1;rounded=1;comic=0;labelBackgroundColor=none;fontFamily=Verdana;fontSize=12;rotation=-90;" vertex="1" parent="1">
          <mxGeometry x="182.5" y="200" width="95" height="20" as="geometry" />
        </mxCell>
        <mxCell id="uaZM5fU-F3_P_CyxsgHP-8" value="" style="ellipse;whiteSpace=wrap;html=1;aspect=fixed;rounded=1;shadow=0;labelBackgroundColor=none;comic=0;sketch=0;fontFamily=Verdana;fontSize=16;fontColor=default;strokeColor=default;strokeWidth=1;fillColor=#000000;" vertex="1" parent="1">
          <mxGeometry x="420" y="110" width="20" height="20" as="geometry" />
        </mxCell>
        <mxCell id="uaZM5fU-F3_P_CyxsgHP-14" value="" style="edgeStyle=orthogonalEdgeStyle;rounded=0;html=1;entryX=1;entryY=0.5;entryPerimeter=0;labelBackgroundColor=none;startArrow=none;startFill=0;startSize=5;endArrow=none;endFill=0;endSize=5;jettySize=auto;orthogonalLoop=1;strokeWidth=1;fontFamily=Verdana;fontSize=12" edge="1" parent="1" source="uaZM5fU-F3_P_CyxsgHP-6" target="uaZM5fU-F3_P_CyxsgHP-8">
          <mxGeometry relative="1" as="geometry">
            <Array as="points">
              <mxPoint x="230" y="120" />
            </Array>
            <mxPoint x="230" y="162.5" as="sourcePoint" />
            <mxPoint x="640" y="160" as="targetPoint" />
          </mxGeometry>
        </mxCell>
        <mxCell id="uaZM5fU-F3_P_CyxsgHP-16" value="" style="ellipse;whiteSpace=wrap;html=1;aspect=fixed;rounded=1;shadow=0;labelBackgroundColor=none;comic=0;sketch=0;fontFamily=Verdana;fontSize=16;fontColor=default;strokeColor=default;strokeWidth=1;fillColor=#000000;" vertex="1" parent="1">
          <mxGeometry x="420" y="330" width="20" height="20" as="geometry" />
        </mxCell>
        <mxCell id="uaZM5fU-F3_P_CyxsgHP-20" style="edgeStyle=orthogonalEdgeStyle;rounded=0;orthogonalLoop=1;jettySize=auto;html=1;exitX=1;exitY=0.5;exitDx=0;exitDy=0;fontFamily=Verdana;fontSize=16;fontColor=default;exitPerimeter=0;" edge="1" parent="1" source="uaZM5fU-F3_P_CyxsgHP-19">
          <mxGeometry relative="1" as="geometry">
            <mxPoint x="430" y="120" as="targetPoint" />
          </mxGeometry>
        </mxCell>
        <mxCell id="uaZM5fU-F3_P_CyxsgHP-21" style="edgeStyle=orthogonalEdgeStyle;rounded=0;orthogonalLoop=1;jettySize=auto;html=1;fontFamily=Verdana;fontSize=16;fontColor=default;" edge="1" parent="1">
          <mxGeometry relative="1" as="geometry">
            <mxPoint x="430" y="340" as="targetPoint" />
            <mxPoint x="430" y="260" as="sourcePoint" />
          </mxGeometry>
        </mxCell>
        <mxCell id="uaZM5fU-F3_P_CyxsgHP-24" style="edgeStyle=orthogonalEdgeStyle;rounded=0;orthogonalLoop=1;jettySize=auto;html=1;exitX=0;exitY=0.5;exitDx=0;exitDy=0;exitPerimeter=0;entryX=0.5;entryY=0;entryDx=0;entryDy=0;fontFamily=Verdana;fontSize=16;fontColor=default;" edge="1" parent="1" source="uaZM5fU-F3_P_CyxsgHP-19" target="uaZM5fU-F3_P_CyxsgHP-23">
          <mxGeometry relative="1" as="geometry" />
        </mxCell>
        <mxCell id="uaZM5fU-F3_P_CyxsgHP-19" value="" style="verticalLabelPosition=bottom;shadow=0;dashed=0;align=center;html=1;verticalAlign=top;strokeWidth=1;shape=mxgraph.electrical.resistors.resistor_1;rounded=1;comic=0;labelBackgroundColor=none;fontFamily=Verdana;fontSize=12;rotation=-90;" vertex="1" parent="1">
          <mxGeometry x="396.25" y="180" width="67.5" height="20" as="geometry" />
        </mxCell>
        <mxCell id="uaZM5fU-F3_P_CyxsgHP-23" value="" style="ellipse;whiteSpace=wrap;html=1;aspect=fixed;rounded=1;shadow=0;labelBackgroundColor=none;comic=0;sketch=0;fontFamily=Verdana;fontSize=16;fontColor=default;strokeColor=default;strokeWidth=1;fillColor=#FFFFFF;gradientColor=none;" vertex="1" parent="1">
          <mxGeometry x="410" y="240" width="40" height="40" as="geometry" />
        </mxCell>
        <mxCell id="uaZM5fU-F3_P_CyxsgHP-26" value="E2" style="text;html=1;resizable=0;points=[];autosize=1;align=left;verticalAlign=top;spacingTop=-4;fontSize=16;fontFamily=Verdana" vertex="1" parent="1">
          <mxGeometry x="450" y="250" width="40" height="20" as="geometry" />
        </mxCell>
        <mxCell id="uaZM5fU-F3_P_CyxsgHP-27" value="" style="endArrow=classic;html=1;rounded=0;fontFamily=Verdana;fontSize=16;fontColor=default;" edge="1" parent="1">
          <mxGeometry width="50" height="50" relative="1" as="geometry">
            <mxPoint x="429.5" y="275" as="sourcePoint" />
            <mxPoint x="429.5" y="245" as="targetPoint" />
          </mxGeometry>
        </mxCell>
        <mxCell id="uaZM5fU-F3_P_CyxsgHP-28" value="I2" style="endArrow=classic;html=1;labelBackgroundColor=none;strokeWidth=1;fontFamily=Verdana;fontSize=16" edge="1" parent="1">
          <mxGeometry x="-0.3333" y="-11" width="50" height="50" relative="1" as="geometry">
            <mxPoint x="449" y="160" as="sourcePoint" />
            <mxPoint x="449" y="130" as="targetPoint" />
            <mxPoint as="offset" />
          </mxGeometry>
        </mxCell>
        <mxCell id="uaZM5fU-F3_P_CyxsgHP-29" value="b" style="endArrow=classic;html=1;labelBackgroundColor=none;strokeWidth=1;fontFamily=Verdana;fontSize=16" edge="1" parent="1">
          <mxGeometry x="-1" y="155" width="50" height="50" relative="1" as="geometry">
            <mxPoint x="560" y="140" as="sourcePoint" />
            <mxPoint x="600" y="140" as="targetPoint" />
            <mxPoint x="-150" y="115" as="offset" />
          </mxGeometry>
        </mxCell>
        <mxCell id="uaZM5fU-F3_P_CyxsgHP-33" value="I3" style="text;html=1;strokeColor=none;fillColor=none;align=center;verticalAlign=middle;whiteSpace=wrap;rounded=0;shadow=0;labelBackgroundColor=none;comic=0;sketch=0;fontFamily=Verdana;fontSize=16;fontColor=default;" vertex="1" parent="1">
          <mxGeometry x="550" y="150" width="40" height="10" as="geometry" />
        </mxCell>
        <mxCell id="uaZM5fU-F3_P_CyxsgHP-40" value="" style="ellipse;whiteSpace=wrap;html=1;aspect=fixed;rounded=1;shadow=0;labelBackgroundColor=none;comic=0;sketch=0;fontFamily=Verdana;fontSize=16;fontColor=default;strokeColor=default;strokeWidth=1;fillColor=#000000;" vertex="1" parent="1">
          <mxGeometry x="630" y="330" width="20" height="20" as="geometry" />
        </mxCell>
        <mxCell id="uaZM5fU-F3_P_CyxsgHP-41" value="" style="edgeStyle=orthogonalEdgeStyle;rounded=0;html=1;labelBackgroundColor=none;startArrow=none;startFill=0;startSize=5;endArrow=none;endFill=0;endSize=5;jettySize=auto;orthogonalLoop=1;strokeWidth=1;fontFamily=Verdana;fontSize=12;" edge="1" parent="1" source="uaZM5fU-F3_P_CyxsgHP-65">
          <mxGeometry relative="1" as="geometry">
            <Array as="points">
              <mxPoint x="380" y="340" />
              <mxPoint x="380" y="340" />
            </Array>
            <mxPoint x="390" y="340" as="sourcePoint" />
            <mxPoint x="480" y="340" as="targetPoint" />
          </mxGeometry>
        </mxCell>
        <mxCell id="uaZM5fU-F3_P_CyxsgHP-42" value="d" style="text;html=1;strokeColor=none;fillColor=none;align=center;verticalAlign=middle;whiteSpace=wrap;rounded=0;shadow=0;labelBackgroundColor=none;comic=0;sketch=0;fontFamily=Verdana;fontSize=16;fontColor=default;" vertex="1" parent="1">
          <mxGeometry x="630" y="310" width="40" height="10" as="geometry" />
        </mxCell>
        <mxCell id="uaZM5fU-F3_P_CyxsgHP-43" value="c" style="text;html=1;strokeColor=none;fillColor=none;align=center;verticalAlign=middle;whiteSpace=wrap;rounded=0;shadow=0;labelBackgroundColor=none;comic=0;sketch=0;fontFamily=Verdana;fontSize=16;fontColor=default;" vertex="1" parent="1">
          <mxGeometry x="423.75" y="310" width="40" height="10" as="geometry" />
        </mxCell>
        <mxCell id="uaZM5fU-F3_P_CyxsgHP-44" value="a" style="text;html=1;strokeColor=none;fillColor=none;align=center;verticalAlign=middle;whiteSpace=wrap;rounded=0;shadow=0;labelBackgroundColor=none;comic=0;sketch=0;fontFamily=Verdana;fontSize=16;fontColor=default;" vertex="1" parent="1">
          <mxGeometry x="200" y="310" width="40" height="10" as="geometry" />
        </mxCell>
        <mxCell id="uaZM5fU-F3_P_CyxsgHP-45" value="" style="ellipse;whiteSpace=wrap;html=1;aspect=fixed;rounded=1;shadow=0;labelBackgroundColor=none;comic=0;sketch=0;fontFamily=Verdana;fontSize=16;fontColor=default;strokeColor=default;strokeWidth=1;fillColor=#000000;" vertex="1" parent="1">
          <mxGeometry x="220" y="330" width="20" height="20" as="geometry" />
        </mxCell>
        <mxCell id="uaZM5fU-F3_P_CyxsgHP-53" value="" style="edgeStyle=orthogonalEdgeStyle;rounded=0;html=1;exitX=0;exitY=0.5;exitPerimeter=0;labelBackgroundColor=none;startArrow=none;startFill=0;startSize=5;endArrow=none;endFill=0;endSize=5;jettySize=auto;orthogonalLoop=1;strokeWidth=1;fontFamily=Verdana;fontSize=12;strokeColor=default;exitDx=0;exitDy=0;entryX=0;entryY=0.5;entryDx=0;entryDy=0;entryPerimeter=0;" edge="1" parent="1" source="uaZM5fU-F3_P_CyxsgHP-49" target="uaZM5fU-F3_P_CyxsgHP-59">
          <mxGeometry relative="1" as="geometry">
            <Array as="points">
              <mxPoint x="230" y="510" />
              <mxPoint x="230" y="340" />
            </Array>
            <mxPoint x="310" y="480" as="sourcePoint" />
            <mxPoint x="260" y="340" as="targetPoint" />
          </mxGeometry>
        </mxCell>
        <mxCell id="uaZM5fU-F3_P_CyxsgHP-49" value="" style="verticalLabelPosition=bottom;shadow=0;dashed=0;align=center;html=1;verticalAlign=top;strokeWidth=1;shape=mxgraph.electrical.resistors.resistor_1;rounded=1;comic=0;labelBackgroundColor=none;fontFamily=Verdana;fontSize=12;rotation=0;" vertex="1" parent="1">
          <mxGeometry x="380" y="500" width="100" height="20" as="geometry" />
        </mxCell>
        <mxCell id="uaZM5fU-F3_P_CyxsgHP-54" value="" style="edgeStyle=orthogonalEdgeStyle;rounded=0;html=1;labelBackgroundColor=none;startArrow=none;startFill=0;startSize=5;endArrow=none;endFill=0;endSize=5;jettySize=auto;orthogonalLoop=1;strokeWidth=1;fontFamily=Verdana;fontSize=12;strokeColor=default;" edge="1" parent="1" target="uaZM5fU-F3_P_CyxsgHP-49">
          <mxGeometry relative="1" as="geometry">
            <Array as="points">
              <mxPoint x="640" y="510" />
            </Array>
            <mxPoint x="640" y="370" as="sourcePoint" />
            <mxPoint x="420" y="510" as="targetPoint" />
          </mxGeometry>
        </mxCell>
        <mxCell id="uaZM5fU-F3_P_CyxsgHP-55" value="R6" style="text;html=1;strokeColor=none;fillColor=none;align=center;verticalAlign=middle;whiteSpace=wrap;rounded=0;shadow=0;labelBackgroundColor=none;comic=0;sketch=0;fontFamily=Verdana;fontSize=16;fontColor=default;" vertex="1" parent="1">
          <mxGeometry x="463.75" y="480" width="30" height="30" as="geometry" />
        </mxCell>
        <mxCell id="uaZM5fU-F3_P_CyxsgHP-56" value="I6" style="endArrow=classic;html=1;labelBackgroundColor=none;strokeWidth=1;fontFamily=Verdana;fontSize=16" edge="1" parent="1">
          <mxGeometry x="-0.1429" y="20" width="50" height="50" relative="1" as="geometry">
            <mxPoint x="520" y="500" as="sourcePoint" />
            <mxPoint x="590" y="500" as="targetPoint" />
            <mxPoint as="offset" />
          </mxGeometry>
        </mxCell>
        <mxCell id="uaZM5fU-F3_P_CyxsgHP-57" value="" style="ellipse;whiteSpace=wrap;html=1;aspect=fixed;rounded=1;shadow=0;labelBackgroundColor=none;comic=0;sketch=0;fontFamily=Verdana;fontSize=16;fontColor=default;strokeColor=default;strokeWidth=1;fillColor=#FFFFFF;gradientColor=none;" vertex="1" parent="1">
          <mxGeometry x="340" y="320" width="40" height="40" as="geometry" />
        </mxCell>
        <mxCell id="uaZM5fU-F3_P_CyxsgHP-58" value="" style="endArrow=classic;html=1;rounded=0;fontFamily=Verdana;fontSize=16;fontColor=default;" edge="1" parent="1">
          <mxGeometry width="50" height="50" relative="1" as="geometry">
            <mxPoint x="374.75" y="339.5" as="sourcePoint" />
            <mxPoint x="345.25" y="339.5" as="targetPoint" />
          </mxGeometry>
        </mxCell>
        <mxCell id="uaZM5fU-F3_P_CyxsgHP-60" style="edgeStyle=orthogonalEdgeStyle;rounded=0;jumpSize=5;orthogonalLoop=1;jettySize=auto;html=1;exitX=1;exitY=0.5;exitDx=0;exitDy=0;exitPerimeter=0;labelBackgroundColor=none;fontFamily=Verdana;fontSize=16;fontColor=#000000;startSize=13;endSize=0;targetPerimeterSpacing=15;strokeColor=default;strokeWidth=0;entryX=0.889;entryY=0.5;entryDx=0;entryDy=0;entryPerimeter=0;" edge="1" parent="1" source="uaZM5fU-F3_P_CyxsgHP-59" target="uaZM5fU-F3_P_CyxsgHP-59">
          <mxGeometry relative="1" as="geometry" />
        </mxCell>
        <mxCell id="uaZM5fU-F3_P_CyxsgHP-59" value="" style="verticalLabelPosition=bottom;shadow=0;dashed=0;align=center;html=1;verticalAlign=top;strokeWidth=1;shape=mxgraph.electrical.resistors.resistor_1;rounded=1;comic=0;labelBackgroundColor=none;fontFamily=Verdana;fontSize=12;rotation=0;" vertex="1" parent="1">
          <mxGeometry x="270" y="330" width="70" height="20" as="geometry" />
        </mxCell>
        <mxCell id="uaZM5fU-F3_P_CyxsgHP-61" value="E4" style="text;html=1;strokeColor=none;fillColor=none;align=center;verticalAlign=middle;whiteSpace=wrap;rounded=0;shadow=0;labelBackgroundColor=none;comic=0;sketch=0;fontFamily=Verdana;fontSize=16;fontColor=default;" vertex="1" parent="1">
          <mxGeometry x="380" y="340" width="30" height="30" as="geometry" />
        </mxCell>
        <mxCell id="uaZM5fU-F3_P_CyxsgHP-62" value="R4" style="text;html=1;strokeColor=none;fillColor=none;align=center;verticalAlign=middle;whiteSpace=wrap;rounded=0;shadow=0;labelBackgroundColor=none;comic=0;sketch=0;fontFamily=Verdana;fontSize=16;fontColor=default;" vertex="1" parent="1">
          <mxGeometry x="290" y="350" width="30" height="30" as="geometry" />
        </mxCell>
        <mxCell id="uaZM5fU-F3_P_CyxsgHP-63" value="I4" style="endArrow=classic;html=1;labelBackgroundColor=none;strokeWidth=1;fontFamily=Verdana;fontSize=16" edge="1" parent="1">
          <mxGeometry x="0.3333" y="16" width="50" height="50" relative="1" as="geometry">
            <mxPoint x="270" y="354.5" as="sourcePoint" />
            <mxPoint x="240" y="354.5" as="targetPoint" />
            <mxPoint as="offset" />
          </mxGeometry>
        </mxCell>
        <mxCell id="uaZM5fU-F3_P_CyxsgHP-65" value="" style="ellipse;whiteSpace=wrap;html=1;aspect=fixed;rounded=1;shadow=0;labelBackgroundColor=none;comic=0;sketch=0;fontFamily=Verdana;fontSize=16;fontColor=default;strokeColor=default;strokeWidth=1;fillColor=#FFFFFF;gradientColor=none;" vertex="1" parent="1">
          <mxGeometry x="453.75" y="320" width="40" height="40" as="geometry" />
        </mxCell>
        <mxCell id="uaZM5fU-F3_P_CyxsgHP-66" value="" style="edgeStyle=orthogonalEdgeStyle;rounded=0;html=1;labelBackgroundColor=none;startArrow=none;startFill=0;startSize=5;endArrow=none;endFill=0;endSize=5;jettySize=auto;orthogonalLoop=1;strokeWidth=1;fontFamily=Verdana;fontSize=12;" edge="1" parent="1" target="uaZM5fU-F3_P_CyxsgHP-65">
          <mxGeometry relative="1" as="geometry">
            <Array as="points" />
            <mxPoint x="390" y="340" as="sourcePoint" />
            <mxPoint x="480" y="340" as="targetPoint" />
          </mxGeometry>
        </mxCell>
        <mxCell id="uaZM5fU-F3_P_CyxsgHP-67" value="" style="endArrow=classic;html=1;rounded=0;fontFamily=Verdana;fontSize=16;fontColor=default;" edge="1" parent="1">
          <mxGeometry width="50" height="50" relative="1" as="geometry">
            <mxPoint x="458.75" y="340" as="sourcePoint" />
            <mxPoint x="488.75" y="340" as="targetPoint" />
          </mxGeometry>
        </mxCell>
        <mxCell id="uaZM5fU-F3_P_CyxsgHP-68" value="" style="verticalLabelPosition=bottom;shadow=0;dashed=0;align=center;html=1;verticalAlign=top;strokeWidth=1;shape=mxgraph.electrical.resistors.resistor_1;rounded=1;comic=0;labelBackgroundColor=none;fontFamily=Verdana;fontSize=12;rotation=0;" vertex="1" parent="1">
          <mxGeometry x="490" y="330" width="100" height="20" as="geometry" />
        </mxCell>
        <mxCell id="uaZM5fU-F3_P_CyxsgHP-72" style="edgeStyle=orthogonalEdgeStyle;rounded=0;jumpSize=5;orthogonalLoop=1;jettySize=auto;html=1;exitX=0;exitY=0.5;exitDx=0;exitDy=0;exitPerimeter=0;entryX=0.057;entryY=0.5;entryDx=0;entryDy=0;entryPerimeter=0;labelBackgroundColor=none;fontFamily=Verdana;fontSize=16;fontColor=#000000;startSize=13;endSize=0;targetPerimeterSpacing=15;strokeColor=default;strokeWidth=0;" edge="1" parent="1" source="uaZM5fU-F3_P_CyxsgHP-68" target="uaZM5fU-F3_P_CyxsgHP-68">
          <mxGeometry relative="1" as="geometry" />
        </mxCell>
        <mxCell id="uaZM5fU-F3_P_CyxsgHP-73" value="R5" style="text;html=1;strokeColor=none;fillColor=none;align=center;verticalAlign=middle;whiteSpace=wrap;rounded=0;shadow=0;labelBackgroundColor=none;comic=0;sketch=0;fontFamily=Verdana;fontSize=16;fontColor=default;" vertex="1" parent="1">
          <mxGeometry x="535" y="350" width="30" height="30" as="geometry" />
        </mxCell>
        <mxCell id="uaZM5fU-F3_P_CyxsgHP-74" value="" style="edgeStyle=orthogonalEdgeStyle;rounded=0;html=1;labelBackgroundColor=none;startArrow=none;startFill=0;startSize=5;endArrow=none;endFill=0;endSize=5;jettySize=auto;orthogonalLoop=1;strokeWidth=1;fontFamily=Verdana;fontSize=12;strokeColor=default;" edge="1" parent="1">
          <mxGeometry relative="1" as="geometry">
            <Array as="points">
              <mxPoint x="640" y="340" />
            </Array>
            <mxPoint x="650" y="340" as="sourcePoint" />
            <mxPoint x="590" y="340" as="targetPoint" />
          </mxGeometry>
        </mxCell>
        <mxCell id="uaZM5fU-F3_P_CyxsgHP-76" value="I5" style="endArrow=classic;html=1;labelBackgroundColor=none;strokeWidth=1;fontFamily=Verdana;fontSize=16" edge="1" parent="1">
          <mxGeometry y="-15" width="50" height="50" relative="1" as="geometry">
            <mxPoint x="580" y="354.5" as="sourcePoint" />
            <mxPoint x="620" y="354.5" as="targetPoint" />
            <mxPoint y="1" as="offset" />
          </mxGeometry>
        </mxCell>
        <mxCell id="uaZM5fU-F3_P_CyxsgHP-79" value="" style="verticalLabelPosition=middle;html=1;verticalAlign=middle;strokeWidth=1;shape=mxgraph.lean_mapping.physical_pull;rounded=1;shadow=0;comic=0;labelBackgroundColor=none;fillColor=#000000;fontFamily=Verdana;fontSize=16;align=center;flipH=1;labelPosition=center;" vertex="1" parent="1">
          <mxGeometry x="290" y="210" width="80" height="80" as="geometry" />
        </mxCell>
        <mxCell id="uaZM5fU-F3_P_CyxsgHP-80" value="" style="verticalLabelPosition=middle;html=1;verticalAlign=middle;strokeWidth=1;shape=mxgraph.lean_mapping.physical_pull;rounded=1;shadow=0;comic=0;labelBackgroundColor=none;fillColor=#000000;fontFamily=Verdana;fontSize=16;align=center;flipH=1;labelPosition=center;" vertex="1" parent="1">
          <mxGeometry x="510" y="210" width="80" height="80" as="geometry" />
        </mxCell>
        <mxCell id="uaZM5fU-F3_P_CyxsgHP-81" value="III" style="text;html=1;strokeColor=none;fillColor=none;align=center;verticalAlign=middle;whiteSpace=wrap;rounded=0;shadow=0;labelBackgroundColor=none;comic=0;sketch=0;fontFamily=Verdana;fontSize=36;fontColor=#000000;" vertex="1" parent="1">
          <mxGeometry x="380" y="392.5" width="100" height="55" as="geometry" />
        </mxCell>
        <mxCell id="uaZM5fU-F3_P_CyxsgHP-83" value="E5" style="text;html=1;strokeColor=none;fillColor=none;align=center;verticalAlign=middle;whiteSpace=wrap;rounded=0;shadow=0;labelBackgroundColor=none;comic=0;sketch=0;fontFamily=Verdana;fontSize=16;fontColor=#000000;" vertex="1" parent="1">
          <mxGeometry x="480" y="360" width="30" height="10" as="geometry" />
        </mxCell>
        <mxCell id="uaZM5fU-F3_P_CyxsgHP-84" value="R2" style="text;html=1;strokeColor=none;fillColor=none;align=center;verticalAlign=middle;whiteSpace=wrap;rounded=0;shadow=0;labelBackgroundColor=none;comic=0;sketch=0;fontFamily=Verdana;fontSize=16;fontColor=#000000;" vertex="1" parent="1">
          <mxGeometry x="440" y="180" width="30" height="10" as="geometry" />
        </mxCell>
      </root>
    </mxGraphModel>
  </diagram>
</mxfile>
